<?xml version="1.0" encoding="UTF-8"?>
<svg version="1.1" xmlns="http://www.w3.org/2000/svg" width="268" height="227">
<path d="M0 0 C88.44 0 176.88 0 268 0 C268 74.91 268 149.82 268 227 C179.56 227 91.12 227 0 227 C0 152.09 0 77.18 0 0 Z " fill="#000318" transform="translate(0,0)"/>
<path d="M0 0 C3.63 0 7.26 0 11 0 C9.29856101 10.54892174 4.73570031 18.41557465 -3.4921875 25.3046875 C-8.84829149 28.92548054 -14.54114985 31 -21 31 C-21 27.7 -21 24.4 -21 21 C-20.20335937 20.64808594 -19.40671875 20.29617187 -18.5859375 19.93359375 C-10.07703722 15.96898449 -4.56337263 12.46458805 -1.125 3.5625 C-0.75375 2.386875 -0.3825 1.21125 0 0 Z " fill="#0157BE" transform="translate(80,111)"/>
<path d="M0 0 C3.3 0 6.6 0 10 0 C10.51046875 1.19496094 10.51046875 1.19496094 11.03125 2.4140625 C15.63900046 12.48738929 20.74517631 17.15444112 31 21 C31 24.3 31 27.6 31 31 C21.75619706 30.49579257 14.6105965 26.46369436 8 20 C3.034078 13.6883965 0 8.16242997 0 0 Z " fill="#0157BE" transform="translate(21,111)"/>
<path d="M0 0 C10.68351059 1.5262158 18.6628158 5.43352708 25.53125 13.921875 C29.11169016 18.98781692 31.37604479 23.76044788 32 30 C28.37 30 24.74 30 21 30 C20.43732422 28.87851563 20.43732422 28.87851563 19.86328125 27.734375 C14.82211262 18.03298248 9.71760807 14.60407062 0 10 C0 6.7 0 3.4 0 0 Z " fill="#0157BE" transform="translate(59,73)"/>
<path d="M0 0 C0 3.3 0 6.6 0 10 C-0.79664062 10.32871094 -1.59328125 10.65742187 -2.4140625 10.99609375 C-9.84850449 14.33345275 -14.54102507 17.48048929 -18 25 C-18.33 26.32 -18.66 27.64 -19 29 C-22.63 29 -26.26 29 -30 29 C-29.41502072 19.83532456 -24.82588719 13.01596143 -18.24609375 6.796875 C-12.90673283 2.52538626 -7.02557436 -0.92441768 0 0 Z " fill="#0158C0" transform="translate(51,74)"/>
<path d="M0 0 C12.24185013 -0.40357748 12.24185013 -0.40357748 17 3 C18 4 18 4 18.25 7.3125 C17.99337817 11.09767206 17.56295176 12.33025858 15 15 C16.32 17.31 17.64 19.62 19 22 C16.25 22.375 16.25 22.375 13 22 C10.8125 19.0625 10.8125 19.0625 9 16 C8.01 15.67 7.02 15.34 6 15 C6 17.64 6 20.28 6 23 C4.02 23 2.04 23 0 23 C0 15.41 0 7.82 0 0 Z " fill="#DDDDDD" transform="translate(173,91)"/>
<path d="M0 0 C8.91 0 17.82 0 27 0 C27 2.31 27 4.62 27 7 C23.7 7 20.4 7 17 7 C17 13.27 17 19.54 17 26 C14.69 26 12.38 26 10 26 C10 19.73 10 13.46 10 7 C6.7 7 3.4 7 0 7 C0 4.69 0 2.38 0 0 Z " fill="#E8E8E7" transform="translate(42,96)"/>
<path d="M0 0 C1.98 0 3.96 0 6 0 C6 2.97 6 5.94 6 9 C8.64 9 11.28 9 14 9 C14 6.03 14 3.06 14 0 C15.98 0 17.96 0 20 0 C20 7.26 20 14.52 20 22 C18.02 22 16.04 22 14 22 C14 19.36 14 16.72 14 14 C11.36 14 8.72 14 6 14 C6 16.97 6 19.94 6 23 C4.02 23 2.04 23 0 23 C0 15.41 0 7.82 0 0 Z " fill="#D4D4D5" transform="translate(126,91)"/>
<path d="M0 0 C1.2065625 0.0309375 1.2065625 0.0309375 2.4375 0.0625 C2.76363281 0.84753906 3.08976563 1.63257812 3.42578125 2.44140625 C4.08126953 4.01728516 4.08126953 4.01728516 4.75 5.625 C5.430625 7.2646875 5.430625 7.2646875 6.125 8.9375 C7.13774341 11.34879383 8.18037012 13.73890257 9.25 16.125 C10.4375 19.0625 10.4375 19.0625 10.4375 22.0625 C8.7875 22.0625 7.1375 22.0625 5.4375 22.0625 C5.1075 20.7425 4.7775 19.4225 4.4375 18.0625 C-0.5125 18.5575 -0.5125 18.5575 -5.5625 19.0625 C-5.8925 20.0525 -6.2225 21.0425 -6.5625 22.0625 C-8.2125 22.0625 -9.8625 22.0625 -11.5625 22.0625 C-10.88373256 17.27341862 -9.02156236 13.1869525 -7.0625 8.8125 C-6.58103516 7.71421875 -6.58103516 7.71421875 -6.08984375 6.59375 C-3.2061086 0.07819777 -3.2061086 0.07819777 0 0 Z " fill="#E5E4E4" transform="translate(231.5625,90.9375)"/>
<path d="M0 0 C5.28 0 10.56 0 16 0 C16 1.32 16 2.64 16 4 C12.37 4 8.74 4 5 4 C5 5.65 5 7.3 5 9 C8.3 9 11.6 9 15 9 C15 10.32 15 11.64 15 13 C11.7 13 8.4 13 5 13 C5 14.65 5 16.3 5 18 C8.63 18 12.26 18 16 18 C16 19.65 16 21.3 16 23 C10.72 23 5.44 23 0 23 C0 15.41 0 7.82 0 0 Z " fill="#DADADA" transform="translate(152,91)"/>
<path d="M0 0 C3.5 1.5 3.5 1.5 6 3 C5.01 4.485 5.01 4.485 4 6 C3.31292969 5.89300781 2.62585938 5.78601563 1.91796875 5.67578125 C1.01691406 5.55589844 0.11585938 5.43601562 -0.8125 5.3125 C-1.70582031 5.18488281 -2.59914062 5.05726562 -3.51953125 4.92578125 C-6.02715058 4.77447365 -6.02715058 4.77447365 -7.8046875 6.2578125 C-9.75234281 9.09655193 -9.30232564 11.67441798 -9 15 C-7.00630631 17.44214222 -7.00630631 17.44214222 -3.0625 17.1875 C-0.32363845 17.16190316 1.34007532 16.88664156 4 16 C4.33 17.32 4.66 18.64 5 20 C0.80590318 22.39662675 -2.1541913 23.70668044 -7 23 C-10.6578218 20.96006092 -12.66946174 19.49580738 -15 16 C-15.54602034 12.60892629 -15.54627924 9.39125824 -15 6 C-10.68694491 0.43842897 -6.88817125 -0.76535236 0 0 Z " fill="#E2E2E2" transform="translate(211,91)"/>
<path d="M0 0 C5.94 0 11.88 0 18 0 C18 1.32 18 2.64 18 4 C15.69 4 13.38 4 11 4 C11 9.94 11 15.88 11 22 C9.35 22 7.7 22 6 22 C6 16.06 6 10.12 6 4 C4.02 4 2.04 4 0 4 C0 2.68 0 1.36 0 0 Z " fill="#E7E7E7" transform="translate(104,91)"/>
<path d="M0 0 C1.65 0 3.3 0 5 0 C5 6.27 5 12.54 5 19 C8.3 19 11.6 19 15 19 C15 19.99 15 20.98 15 22 C10.05 22 5.1 22 0 22 C0 14.74 0 7.48 0 0 Z " fill="#ECECEA" transform="translate(247,91)"/>
<path d="M0 0 C3.375 -0.125 3.375 -0.125 7 0 C9 2 9 2 9.125 4.375 C9.08375 5.24125 9.0425 6.1075 9 7 C9 8.32 9 9.64 9 11 C9 11.66 9 12.32 9 13 C8.34 13 7.68 13 7 13 C6.34 12.01 5.68 11.02 5 10 C2.94074861 9.27617533 2.94074861 9.27617533 1 9 C0.67 9.99 0.34 10.98 0 12 C0 8.04 0 4.08 0 0 Z " fill="#0050AE" transform="translate(172,123)"/>
<path d="M0 0 C0.99 0 1.98 0 3 0 C4.38671875 1.53125 4.38671875 1.53125 5.6875 3.5 C6.12449219 4.1496875 6.56148437 4.799375 7.01171875 5.46875 C7.33785156 5.9740625 7.66398438 6.479375 8 7 C8.33 4.69 8.66 2.38 9 0 C9.66 0 10.32 0 11 0 C11 4.29 11 8.58 11 13 C6.82200357 10.91100178 6.07608099 9.94455388 4 6 C3.67 8.31 3.34 10.62 3 13 C2.01 13 1.02 13 0 13 C0 8.71 0 4.42 0 0 Z " fill="#004497" transform="translate(139,123)"/>
<path d="M0 0 C2.97 0 5.94 0 9 0 C9 0.66 9 1.32 9 2 C7.02 2 5.04 2 3 2 C3 2.99 3 3.98 3 5 C4.65 5 6.3 5 8 5 C8 5.66 8 6.32 8 7 C6.02 7 4.04 7 2 7 C2 8.32 2 9.64 2 11 C4.64 11 7.28 11 10 11 C10 11.66 10 12.32 10 13 C6.7 13 3.4 13 0 13 C0 8.71 0 4.42 0 0 Z " fill="#00479C" transform="translate(213,123)"/>
<path d="M0 0 C0 0.66 0 1.32 0 2 C-2.31 2 -4.62 2 -7 2 C-7.74957157 5.47147842 -7.74957157 5.47147842 -8 9 C-6.02 9 -4.04 9 -2 9 C-2 8.34 -2 7.68 -2 7 C-2.66 7 -3.32 7 -4 7 C-4 6.34 -4 5.68 -4 5 C-2.68 5 -1.36 5 0 5 C0.1875 7.375 0.1875 7.375 0 10 C-3 12 -3 12 -5.5 11.8125 C-9.49068323 10.51552795 -9.49068323 10.51552795 -11 8 C-10.875 4.4375 -10.875 4.4375 -10 1 C-6.1496895 -1.56687367 -4.41430237 -0.83288724 0 0 Z " fill="#004EAA" transform="translate(198,124)"/>
<path d="M0 0 C1.2065625 0.0309375 1.2065625 0.0309375 2.4375 0.0625 C2.4375 1.0525 2.4375 2.0425 2.4375 3.0625 C1.1175 3.3925 -0.2025 3.7225 -1.5625 4.0625 C0.4175 5.0525 2.3975 6.0425 4.4375 7.0625 C4.4375 8.7125 4.4375 10.3625 4.4375 12.0625 C1.7975 12.0625 -0.8425 12.0625 -3.5625 12.0625 C-3.5625 11.0725 -3.5625 10.0825 -3.5625 9.0625 C-1.9125 9.3925 -0.2625 9.7225 1.4375 10.0625 C0.06058038 7.30866077 -1.92970042 6.54766899 -4.5625 5.0625 C-3.43829114 0.08386076 -3.43829114 0.08386076 0 0 Z " fill="#0049A1" transform="translate(232.5625,122.9375)"/>
<path d="M0 0 C2.64 0 5.28 0 8 0 C8 0.66 8 1.32 8 2 C6.02 2 4.04 2 2 2 C2 2.99 2 3.98 2 5 C3.98 5 5.96 5 8 5 C8 5.66 8 6.32 8 7 C6.02 7 4.04 7 2 7 C2 8.32 2 9.64 2 11 C3.98 11 5.96 11 8 11 C8 11.33 8 11.66 8 12 C5.36 12 2.72 12 0 12 C0 8.04 0 4.08 0 0 Z " fill="#004FAD" transform="translate(125,123)"/>
<path d="M0 0 C2.64 0 5.28 0 8 0 C8 0.66 8 1.32 8 2 C6.02 2 4.04 2 2 2 C2 2.99 2 3.98 2 5 C3.98 5 5.96 5 8 5 C8 5.66 8 6.32 8 7 C6.02 7 4.04 7 2 7 C2 8.32 2 9.64 2 11 C3.98 11 5.96 11 8 11 C8 11.33 8 11.66 8 12 C5.36 12 2.72 12 0 12 C0 8.04 0 4.08 0 0 Z " fill="#0052B3" transform="translate(157,123)"/>
<path d="M0 0 C1.98 0 3.96 0 6 0 C6.38218767 1.65614657 6.71395102 3.32457024 7 5 C6 6 6 6 2.9375 6.0625 C1.4834375 6.0315625 1.4834375 6.0315625 0 6 C0 4.02 0 2.04 0 0 Z " fill="#121424" transform="translate(179,96)"/>
<path d="M0 0 C0.66 0 1.32 0 2 0 C2 4.29 2 8.58 2 13 C-2.5 10.75 -2.5 10.75 -4 7 C-3.01 7 -2.02 7 -1 7 C-0.67 4.69 -0.34 2.38 0 0 Z " fill="#004EAB" transform="translate(148,123)"/>
<path d="M0 0 C1.32 0 2.64 0 4 0 C4.1875 2.375 4.1875 2.375 4 5 C1 7 1 7 -2 7 C-2.33 6.01 -2.66 5.02 -3 4 C-1.35 4 0.3 4 2 4 C2 3.34 2 2.68 2 2 C1.34 2 0.68 2 0 2 C0 1.34 0 0.68 0 0 Z " fill="#004597" transform="translate(194,129)"/>
<path d="M0 0 C0.66 0 1.32 0 2 0 C2.66 2.31 3.32 4.62 4 7 C2.02 7 0.04 7 -2 7 C-1.34 4.69 -0.68 2.38 0 0 Z " fill="#222331" transform="translate(230,98)"/>
<path d="M0 0 C1.65 0 3.3 0 5 0 C5 1.65 5 3.3 5 5 C3.35 5 1.7 5 0 5 C0 3.35 0 1.7 0 0 Z " fill="#00071B" transform="translate(174,125)"/>
</svg>
